<svg width="42" height="33" viewBox="0 0 42 33" fill="none" xmlns="http://www.w3.org/2000/svg">
<path d="M10.2671 6.32266H7.88548L9.24136 8.28125C9.12513 8.74646 9.08022 9.22883 9.11014 9.71175C9.16294 10.5641 9.44685 11.3859 9.93141 12.0891L9.93621 12.096L17.1359 22.4956L17.1367 22.4967C17.5691 23.1209 18.1464 23.631 18.8191 23.9833C19.3322 24.252 19.8891 24.4228 20.4614 24.4887L20.9991 25.2654L21.5368 24.4887C22.1091 24.4228 22.6661 24.252 23.1792 23.9833C23.8518 23.631 24.4291 23.1209 24.8616 22.4967L24.8623 22.4956L32.0597 12.0994C32.5483 11.3958 32.8353 10.572 32.8895 9.71695C32.9202 9.23159 32.8753 8.74673 32.7583 8.27926L34.1128 6.32266H31.733C31.4154 5.96052 31.0425 5.64771 30.6261 5.3968C29.8923 4.95456 29.0515 4.72149 28.1948 4.72273M10.2671 6.32266L28.1908 6.32266M10.2671 6.32266C10.583 5.96264 10.9535 5.65136 11.3671 5.40118C12.1008 4.95732 12.9419 4.7227 13.7994 4.72273V6.32266H11.9245L10.2671 6.32266ZM28.1948 4.72273H28.1988V6.32266M28.1948 4.72273C28.1916 4.72273 28.1884 4.72274 28.1852 4.72275L28.1908 6.32266M28.1948 4.72273L13.8 4.72273L13.7998 6.32266H15.3265L26.6717 6.32266H28.1908M28.1988 6.32266H28.1908M28.1988 6.32266V8.62159V6.32266Z" stroke="#DEAD00" stroke-width="7.79772"/>
</svg>
